<svg width="468" height="440" viewBox="0 0 468 440" fill="none" xmlns="http://www.w3.org/2000/svg">
<path d="M9.15527e-05 407.014L462.743 403.571V413.758C462.743 415.095 462.264 416.388 461.393 417.404C460.523 418.419 459.317 419.089 457.995 419.293L327.144 439.352C325.589 439.591 324.011 439.654 322.442 439.541L5.0242 416.672C3.65805 416.574 2.37976 415.962 1.44669 414.959C0.51358 413.957 -0.0050354 412.638 -0.00479126 411.269L9.15527e-05 407.014Z" fill="url(#paint0_linear_1457_20327)"/>
<path d="M167.927 390.502L457.955 409.137C463.145 409.464 467.365 405.928 467.365 401.221V212.72C467.365 208.015 463.145 204.201 457.955 204.201H167.927C166.913 204.198 165.909 204.396 164.972 204.781C164.034 205.167 163.182 205.734 162.464 206.449C161.746 207.164 161.176 208.014 160.786 208.949C160.396 209.885 160.195 210.888 160.193 211.901V382.299C160.193 386.557 163.651 390.228 167.927 390.502Z" fill="url(#paint1_linear_1457_20327)"/>
<path d="M163.303 390.502L453.331 409.137C458.521 409.464 462.741 405.928 462.741 401.221V212.72C462.741 208.015 458.521 204.201 453.331 204.201H163.303C162.289 204.198 161.285 204.396 160.348 204.781C159.41 205.167 158.558 205.734 157.84 206.449C157.122 207.164 156.552 208.014 156.162 208.949C155.772 209.885 155.571 210.888 155.569 211.901V382.299C155.569 386.557 159.027 390.228 163.303 390.502Z" fill="url(#paint2_linear_1457_20327)"/>
<path d="M172.338 378.489L442.465 394.675C446.688 394.928 450.12 392.02 450.12 388.18V223.139C450.12 219.299 446.695 216.172 442.465 216.156L172.338 215.14C171.504 215.133 170.677 215.291 169.904 215.605C169.131 215.919 168.428 216.382 167.835 216.969C167.243 217.555 166.771 218.253 166.449 219.022C166.127 219.791 165.96 220.616 165.958 221.45V371.767C165.958 375.27 168.811 378.277 172.338 378.489Z" fill="url(#paint3_linear_1457_20327)"/>
<path d="M298.074 209.355C298.074 211.107 299.567 212.532 301.41 212.537C303.253 212.542 304.754 211.123 304.754 209.367C304.754 207.61 303.256 206.188 301.41 206.187C299.563 206.185 298.074 207.604 298.074 209.355Z" fill="white"/>
<g style="mix-blend-mode:soft-light" opacity="0.48">
<path d="M233.181 338.803C255.54 327.865 273.121 341.724 290.087 328.051C300.373 319.761 295.323 313.579 307.979 301.191C321.998 287.469 331.125 292.081 345.213 279.733C363.028 264.117 354.118 251.969 369.463 240.756C388.078 227.156 408.152 239.745 425.873 226.701C433.515 221.075 437.709 212.896 439.901 204.196H457.236C460.275 204.196 462.743 206.435 462.743 209.196V404.601C462.743 407.362 460.275 409.441 457.236 409.245L161.649 390.164C160.947 390.113 160.265 389.909 159.649 389.567C159.034 389.226 158.501 388.754 158.087 388.185C179.724 387.469 193.017 380.874 201.516 374.055C218.138 360.725 215.255 347.572 233.181 338.803Z" fill="white"/>
</g>
<path d="M151.743 389.657L462.743 409.271L327.141 430.059C325.587 430.296 324.01 430.358 322.442 430.245L-0.00479126 407.013L146.79 389.789C148.434 389.597 150.091 389.553 151.743 389.657Z" fill="url(#paint4_linear_1457_20327)"/>
<path style="mix-blend-mode:multiply" opacity="0.3" d="M417.362 409.765L158.446 393.193L78.3134 402.518L335 420.234L417.362 409.765Z" fill="url(#paint5_linear_1457_20327)"/>
<path d="M31.0332 133.414C22.5509 134.129 15.0376 127.259 14.2644 118.071C13.4912 108.883 19.742 100.856 28.2292 100.142C28.6696 100.104 29.1051 100.1 29.5341 100.103C29.93 95.418 30.6687 90.7686 31.7444 86.1918C31.3415 86.0287 30.9386 85.8558 30.5422 85.652C22.8054 81.676 19.4304 71.7149 23.0028 63.4009C26.5751 55.0869 35.7457 51.5676 43.4825 55.5435C43.8871 55.7506 44.272 55.9839 44.6521 56.2236C47.1613 52.4327 49.959 48.8408 53.0202 45.4797C52.7396 45.1143 52.4623 44.7409 52.2046 44.3381C47.2898 36.7384 48.952 26.3516 55.9139 21.1395C62.8759 15.9273 72.5065 17.8615 77.4197 25.4595C77.6709 25.8493 77.8944 26.2505 78.1113 26.6533C82.0671 24.7463 86.1765 23.1757 90.3959 21.9581C90.3209 21.495 90.2508 21.0286 90.2116 20.5524C89.4368 11.3659 87.7648 0.992147 96.2601 0.40994C115.923 -0.928975 120.172 8.78427 120.953 17.9708C120.992 18.447 121.002 18.9183 121.006 19.3863C125.369 19.8824 129.683 20.7443 133.902 21.963C134.049 21.5292 134.202 21.0971 134.391 20.6698C137.965 12.3525 137.319 6.8077 145.441 9.92585C163.153 16.7183 165.983 26.7512 162.405 35.0652C162.219 35.5006 162.007 35.9132 161.792 36.3209C165.373 39.1226 168.732 42.196 171.84 45.5139C172.175 45.2155 172.516 44.9203 172.879 44.6479C179.841 39.4293 189.47 41.37 194.385 48.9696C199.3 56.5693 197.638 66.9561 190.674 72.1683C190.317 72.4357 189.95 72.6722 189.58 72.9005C191.406 77.2335 192.912 81.6943 194.087 86.2472C194.514 86.1722 194.943 86.1037 195.392 86.0662C203.874 85.3519 211.377 92.221 212.16 101.409C212.943 110.597 206.681 118.624 198.194 119.338C197.755 119.376 197.32 119.381 196.889 119.378C196.493 124.062 195.754 128.712 194.679 133.289C195.082 133.452 195.483 133.625 195.879 133.828C203.618 137.804 206.993 147.766 203.419 156.081C199.845 164.397 190.677 167.913 182.941 163.937C182.536 163.73 182.15 163.497 181.769 163.257C179.262 167.049 176.464 170.641 173.401 174.001C173.684 174.368 173.959 174.74 174.217 175.142C179.13 182.742 177.47 193.129 170.506 198.343C163.542 203.556 148.47 201.17 143.557 193.571C143.304 193.181 148.526 193.23 148.309 192.827C144.353 194.734 140.245 196.305 136.026 197.522C136.101 197.985 136.169 198.452 136.21 198.928C136.983 208.115 130.731 216.143 122.244 216.857C113.756 217.572 106.248 210.703 105.475 201.516C105.434 201.04 105.424 200.569 105.421 200.101C101.058 199.604 96.7437 198.742 92.5247 197.524C92.3779 197.958 92.2262 198.39 92.0353 198.817C88.463 207.134 79.294 210.649 71.5572 206.673C63.8204 202.697 60.4438 192.736 64.0177 184.422C64.2037 183.988 64.4141 183.574 64.6311 183.166C61.05 180.365 57.6906 177.291 54.5829 173.973C54.2566 174.271 53.9075 174.567 53.5438 174.839C46.5802 180.058 36.9512 178.117 32.038 170.517C27.1248 162.918 28.7854 152.531 35.749 147.319C36.1046 147.051 36.4732 146.816 36.8419 146.586C35.0159 142.254 33.5101 137.793 32.3365 133.24C31.9026 133.308 31.472 133.377 31.0332 133.414ZM118.303 170.142C149.118 167.548 171.821 138.401 169.01 105.043C166.2 71.6839 138.931 46.7436 108.119 49.3382C77.3072 51.9329 54.5975 81.084 57.4114 114.439C60.2252 147.795 87.481 172.737 118.296 170.142H118.303Z" fill="#BFC6D1"/>
<path d="M30.5468 85.6503C22.81 81.6744 19.4351 71.7132 23.0074 63.3976C26.5798 55.082 35.7503 51.5659 43.4871 55.5419C43.8917 55.749 44.2767 55.9822 44.6567 56.2219C47.1655 52.4308 49.9632 48.8388 53.0248 45.478C52.7443 45.1127 52.467 44.7392 52.2092 44.3364C47.2944 36.7367 43.5198 21.6679 50.9809 17.1912C65.1414 8.71089 72.5128 17.8599 77.4243 25.4579C77.6756 25.8477 77.899 26.2489 78.1176 26.6517C82.0727 24.7444 86.1816 23.1738 90.4006 21.9565C90.3255 21.4934 90.2554 21.0269 90.2163 20.5507C89.7938 15.5506 91.4658 10.9044 94.4345 7.58398C96.3267 21.9505 98.0982 36.3312 99.749 50.726C73.3023 57.3815 54.8599 84.1712 57.4095 114.431C59.5692 140.071 76.1798 160.721 97.741 167.733C97.6921 170.537 97.6186 173.347 97.6447 176.153C97.7149 183.769 98.2091 191.4 98.7116 199.026C96.6193 198.604 94.5531 198.098 92.513 197.509C92.3662 197.943 92.2145 198.375 92.0236 198.802C88.4513 207.12 80.4666 212.175 66.231 205.489C58.3572 201.793 60.4321 192.718 64.0061 184.404C64.192 183.97 64.4025 183.556 64.6194 183.148C61.0384 180.347 57.679 177.273 54.5712 173.955C54.245 174.253 53.8959 174.549 53.5321 174.821C46.5685 180.04 30.9481 177.104 26.0333 169.508C21.1184 161.911 28.7737 152.513 35.7373 147.301C36.0929 147.033 36.4616 146.797 36.8302 146.567C35.0042 142.235 33.4984 137.774 32.3248 133.222C31.8975 133.297 31.4668 133.365 31.028 133.403C22.5458 134.117 15.0324 127.248 14.2592 118.06C13.4861 108.872 19.7368 100.845 28.2256 100.13C28.6644 100.093 29.1 100.088 29.5306 100.091C29.9265 95.4066 30.6652 90.7571 31.7408 86.1803C31.3461 86.027 30.9448 85.8558 30.5468 85.6503Z" fill="#BFC6D1"/>
<path d="M23.1151 131.201C14.6328 131.915 7.12111 125.048 6.3463 115.86C5.57147 106.672 11.8255 98.6432 20.3127 97.9207C20.7515 97.8832 21.187 97.88 21.6176 97.8832C22.0134 93.1979 22.7522 88.5479 23.8279 83.9706C23.425 83.8075 23.0221 83.6347 22.6257 83.4308C14.8889 79.4565 11.514 69.4937 15.0879 61.1797C18.6619 52.8657 27.8293 49.348 35.5661 53.3223C35.9706 53.5311 36.3556 53.7643 36.7356 54.0024C39.2453 50.2114 42.0435 46.6195 45.1053 43.2585C44.8231 42.8932 44.5458 42.5213 44.2897 42.1169C39.3765 34.5172 41.0371 24.1304 48.0007 18.9183C54.9643 13.7061 64.5917 15.6403 69.5049 23.24C69.7577 23.6298 69.9795 24.0293 70.1981 24.4321C74.1532 22.5248 78.2621 20.9542 82.4811 19.737C82.4061 19.2738 82.3376 18.809 82.2968 18.3328C81.522 9.14469 87.776 1.1161 96.2631 0.401795C104.75 -0.31251 112.257 6.55656 113.032 15.7447C113.071 16.2209 113.082 16.6906 113.086 17.1602C117.449 17.6558 121.762 18.5172 125.98 19.7353C126.129 19.3015 126.281 18.8694 126.47 18.4437C130.044 10.1265 139.213 6.61201 146.95 10.5864C154.686 14.5607 158.063 24.5234 154.489 32.8374C154.303 33.2729 154.093 33.6855 153.876 34.0932C157.457 36.895 160.816 39.969 163.924 43.2878C164.258 42.9878 164.599 42.6926 164.963 42.4202C171.927 37.2016 181.554 39.1422 186.469 46.7419C191.384 54.3416 189.721 64.7284 182.758 69.9405C182.402 70.208 182.033 70.4445 181.663 70.6744C183.49 75.0065 184.997 79.4669 186.17 84.0195C186.598 83.9445 187.027 83.876 187.475 83.8401C195.957 83.1242 203.471 89.9933 204.244 99.1814C205.017 108.369 198.765 116.396 190.278 117.121C189.839 117.156 189.403 117.161 188.973 117.158C188.577 121.843 187.838 126.493 186.762 131.071C187.165 131.234 187.568 131.407 187.965 131.609C195.701 135.585 199.076 145.548 195.504 153.862C191.932 162.176 182.761 165.693 175.024 161.719C174.62 161.51 174.235 161.277 173.855 161.037C171.346 164.829 168.548 168.421 165.485 171.781C165.767 172.148 166.044 172.52 166.301 172.923C171.214 180.522 169.553 190.908 162.59 196.121C155.626 201.335 145.999 199.399 141.085 191.8C140.833 191.41 140.611 191.009 140.392 190.606C136.437 192.513 132.328 194.084 128.109 195.303C128.184 195.766 128.253 196.231 128.293 196.707C129.068 205.895 122.814 213.922 114.327 214.636C105.84 215.351 98.3413 208.483 97.5583 199.295C97.5176 198.819 97.5078 198.347 97.5061 197.879C93.1428 197.384 88.8288 196.523 84.6098 195.304C84.463 195.738 84.3097 196.17 84.1205 196.596C80.5465 204.913 71.3775 208.428 63.6407 204.453C55.9039 200.479 52.5273 190.515 56.1013 182.201C56.2872 181.767 56.4977 181.353 56.7146 180.945C53.1332 178.144 49.7737 175.071 46.6664 171.752C46.3401 172.052 45.9911 172.345 45.6273 172.618C38.6637 177.836 29.0363 175.897 24.1215 168.298C19.2067 160.698 20.8689 150.311 27.8325 145.098C28.1897 144.832 28.5567 144.595 28.927 144.365C27.0998 140.033 25.5934 135.572 24.42 131.019C23.9845 131.095 23.5555 131.164 23.1151 131.201ZM110.384 167.929C141.2 165.335 163.903 136.188 161.092 102.83C158.282 69.4708 131.022 44.5305 100.207 47.1268C69.3923 49.7231 46.6827 78.8661 49.4933 112.233C52.3038 145.6 79.5547 170.524 110.384 167.929Z" fill="#D8DEE8"/>
<path d="M174.184 96.6568V175.263C174.184 177.872 172.399 179.945 170.203 179.891L40.3074 176.711C38.3091 176.662 36.691 174.609 36.691 172.125V97.2912L174.184 96.6568Z" fill="white"/>
<path d="M40.3074 87.7606L170.203 86.7104C172.399 86.6924 174.184 88.793 174.184 91.4039V99.4586L36.691 99.9577V92.2927C36.691 89.8041 38.3091 87.7704 40.3074 87.7606Z" fill="url(#paint6_linear_1457_20327)"/>
<path d="M141.738 138.163L134.478 107.73C123.532 111.97 115.652 124.246 115.593 138.76L141.738 138.163Z" fill="url(#paint7_linear_1457_20327)"/>
<path d="M122.324 140.737C122.728 147.658 125.49 153.834 129.654 158.098L141.037 140.295L122.324 140.737Z" fill="#F4F7FA"/>
<path d="M143.365 137.134C147.769 132.116 153.105 126.044 157.351 121.173C153.584 116.881 148.503 114.245 142.929 114.237C141.274 114.234 139.626 114.466 138.035 114.925L143.365 137.134Z" fill="#F4F7FA"/>
<path d="M144.284 139.05L160.323 153.33C162.574 149.369 163.891 144.574 163.891 139.396C163.891 133.011 161.891 127.165 158.601 122.726C157.424 124.073 156.119 125.565 154.686 127.204C150.348 132.152 146.001 137.097 144.284 139.05Z" fill="#F4F7FA"/>
<path d="M143.825 141.291L144.133 164.105C150.226 163.806 155.641 160.354 159.258 155.047L143.825 141.291Z" fill="#F4F7FA"/>
<path d="M142.05 142.24L131.057 159.421C134.262 162.177 138.143 163.886 142.347 164.105L142.05 142.24Z" fill="#F4F7FA"/>
<path d="M46.0859 121.631L111.913 121.915V114.242L46.0859 114.139V121.631Z" fill="#D8DEE8"/>
<path d="M46.0859 135.19L111.913 135.8V128.127L46.0859 127.698V135.19Z" fill="#D8DEE8"/>
<path d="M46.0859 148.749L111.913 149.683V142.01L46.0859 141.257V148.749Z" fill="#D8DEE8"/>
<path d="M46.0859 162.308L111.913 163.568V155.895L46.0859 154.814V162.308Z" fill="#D8DEE8"/>
<path d="M41.9997 94.0348C41.9997 95.191 42.7892 96.1239 43.7614 96.119C44.7336 96.1141 45.5264 95.1715 45.5264 94.0136C45.5264 92.8557 44.7352 91.9228 43.7614 91.9277C42.7876 91.9326 41.9997 92.8785 41.9997 94.0348Z" fill="white"/>
<path d="M310.779 267.138V362.419C310.779 365.583 308.571 368.014 305.851 367.851L146.016 358.264C143.57 358.117 141.594 355.574 141.594 352.582V262.464L310.779 267.138Z" fill="white"/>
<path d="M146.016 251.128L305.851 254.931C308.571 254.996 310.779 257.612 310.779 260.776V270.539L141.594 265.681V256.447C141.594 253.448 143.573 251.071 146.016 251.128Z" fill="url(#paint8_linear_1457_20327)"/>
<path d="M158.792 342.678L291.782 349.924V284.961L158.792 280.501V342.678Z" fill="#F4F7FA"/>
<path d="M158.792 342.679L291.774 349.924V308.163C287.422 336.344 282.788 342.399 279.296 342.521C274.383 342.694 271.738 331.115 264.313 330.453C256.947 329.793 254.462 340.768 248.947 340.106C238.472 338.847 235.625 297.664 227.138 297.052C220.401 296.563 215.845 322.121 209.912 320.829C205.578 319.887 204.529 305.474 201.249 305.483C198.275 305.493 198.15 317.343 194.235 318.266C188.503 319.618 182.931 295.53 175.036 295.061C170.666 294.8 165.226 301.757 158.782 325.931L158.792 342.679Z" fill="url(#paint9_linear_1457_20327)"/>
<path d="M147 258.483C147 259.884 147.979 261.046 149.179 261.077C150.38 261.108 151.363 259.999 151.363 258.597C151.363 257.194 150.385 256.032 149.179 256.001C147.974 255.97 147 257.08 147 258.483Z" fill="white"/>
<path d="M444.233 91.6583V228.265C444.233 232.8 440.933 236.419 436.87 236.351L203.424 232.365C199.933 232.305 197.109 228.859 197.109 224.669V98.4311L444.233 91.6583Z" fill="white"/>
<path d="M203.424 82.1995L436.87 74.5607C440.933 74.427 444.233 77.9952 444.233 82.5306V96.5297L197.106 102.932V89.9949C197.109 85.8037 199.938 82.3137 203.424 82.1995Z" fill="url(#paint10_linear_1457_20327)"/>
<path d="M204 92.7324C204 94.7383 205.455 96.3202 207.251 96.2729C209.047 96.2256 210.514 94.5508 210.514 92.5416C210.514 90.5324 209.055 88.9537 207.251 89.001C205.447 89.0483 204 90.7265 204 92.7324Z" fill="white"/>
<path d="M393.758 217.942L412.149 218.156V116.636L393.758 117.003V217.942Z" fill="#F4F7FA"/>
<path d="M393.758 217.942L412.149 218.156V169.956L393.758 170.018V217.942Z" fill="url(#paint11_linear_1457_20327)"/>
<path d="M368.517 217.65L386.618 217.86V117.145L368.517 117.505V217.65Z" fill="#F4F7FA"/>
<path d="M368.517 217.65L386.618 217.86V193.951L368.517 193.877V217.65Z" fill="url(#paint12_linear_1457_20327)"/>
<path d="M343.668 217.363L361.487 217.57V117.646L343.668 118.001V217.363Z" fill="#F4F7FA"/>
<path d="M343.668 217.363L361.487 217.57V205.115L343.668 204.98V217.363Z" fill="url(#paint13_linear_1457_20327)"/>
<path d="M319.205 217.081L336.75 217.283V118.14L319.205 118.489V217.081Z" fill="#F4F7FA"/>
<path d="M319.205 217.081L336.75 217.283V139.616L319.205 139.846V217.081Z" fill="url(#paint14_linear_1457_20327)"/>
<path d="M295.121 216.802L312.394 217.003V118.624L295.121 118.968V216.802Z" fill="#F4F7FA"/>
<path d="M295.121 216.802L312.394 217.003V148.692L295.121 148.871V216.802Z" fill="url(#paint15_linear_1457_20327)"/>
<path d="M271.401 216.528L288.413 216.725V119.102L271.401 119.441V216.528Z" fill="#F4F7FA"/>
<path d="M271.401 216.528L288.413 216.725V133.297L271.401 133.558V216.528Z" fill="url(#paint16_linear_1457_20327)"/>
<path d="M248.043 216.257L264.796 216.451V119.573L248.043 119.908V216.257Z" fill="#F4F7FA"/>
<path d="M248.043 216.257L264.796 216.451V156.945L248.043 157.076V216.257Z" fill="url(#paint17_linear_1457_20327)"/>
<path d="M225.036 215.991L241.537 216.182V120.036L225.036 120.366V215.991Z" fill="#F4F7FA"/>
<path d="M225.036 215.991L241.537 216.182V182.802L225.036 182.793V215.991Z" fill="url(#paint18_linear_1457_20327)"/>
<path d="M453.298 278.136V357.438C453.298 360.071 451.574 362.109 449.447 361.99L323.456 354.95C321.513 354.841 319.939 352.716 319.939 350.202V274.511L453.298 278.136Z" fill="white"/>
<path d="M323.456 264.985L449.447 267.978C451.567 268.028 453.298 270.202 453.298 272.836V280.962L319.939 277.211V269.445C319.939 266.939 321.513 264.938 323.456 264.985Z" fill="url(#paint19_linear_1457_20327)"/>
<path d="M326 271.07C326 272.238 326.763 273.203 327.704 273.229C328.645 273.255 329.412 272.327 329.412 271.158C329.412 269.989 328.647 269.023 327.704 269C326.761 268.978 326 269.91 326 271.07Z" fill="white"/>
<path d="M433.021 316.125C431.852 313.341 429.659 311.304 427.084 310.829L426.903 297.271C434.228 297.871 440.497 303.73 443.293 311.806L433.021 316.125Z" fill="url(#paint20_linear_1457_20327)"/>
<path d="M425.021 310.792C421.54 311.309 418.823 314.755 418.497 319.158L407.745 319.261C407.882 307.276 415.345 297.763 424.836 297.245L425.021 310.792Z" fill="#D8DEE8"/>
<path d="M418.587 321.723C419.22 326.267 422.373 329.841 426.179 330.014C427.273 330.063 428.36 329.824 429.332 329.321L435.062 341.145C432.421 342.835 429.319 343.663 426.186 343.514C416.578 343.033 408.732 333.519 407.841 321.824L418.587 321.723Z" fill="#D8DEE8"/>
<path d="M436.827 339.871L431.089 328.044C432.821 326.35 433.927 323.708 433.927 320.696C433.927 319.985 433.864 319.275 433.739 318.576L444.016 314.265C444.568 316.522 444.847 318.837 444.845 321.161C444.845 329.064 441.669 335.902 436.827 339.871Z" fill="#D8DEE8"/>
<path d="M393.002 314.505C391.86 311.762 389.731 309.753 387.226 309.286L387.051 295.914C394.176 296.501 400.264 302.274 402.991 310.24L393.002 314.505Z" fill="#D8DEE8"/>
<path d="M385.222 309.251C381.837 309.763 379.198 313.164 378.883 317.506L368.422 317.613C368.556 305.793 375.816 296.413 385.047 295.887L385.222 309.251Z" fill="url(#paint21_linear_1457_20327)"/>
<path d="M378.962 320.037C379.577 324.517 382.645 328.041 386.346 328.209C387.411 328.256 388.469 328.02 389.413 327.524L394.988 339.181C392.424 340.85 389.399 341.669 386.343 341.523C376.996 341.057 369.362 331.678 368.498 320.135L378.962 320.037Z" fill="#D8DEE8"/>
<path d="M396.706 337.925L391.116 326.263C392.809 324.59 393.889 321.986 393.889 319.023C393.889 318.32 393.828 317.619 393.706 316.927L403.697 312.662C404.234 314.889 404.505 317.171 404.503 319.461C404.503 327.26 401.415 334.007 396.706 337.925Z" fill="#D8DEE8"/>
<path d="M354.069 312.931C352.963 310.226 350.886 308.244 348.449 307.786L348.286 294.596C355.22 295.172 361.153 300.868 363.799 308.721L354.069 312.931Z" fill="#D8DEE8"/>
<path d="M346.499 307.752C343.206 308.259 340.636 311.615 340.33 315.906L330.149 316.017C330.278 304.357 337.345 295.092 346.329 294.576L346.499 307.752Z" fill="#D8DEE8"/>
<path d="M340.407 318.396C341.006 322.816 343.996 326.29 347.585 326.453C348.623 326.5 349.654 326.265 350.57 325.774L355.995 337.27C353.509 338.915 350.563 339.727 347.585 339.587C338.489 339.132 331.059 329.885 330.217 318.499L340.407 318.396Z" fill="#D8DEE8"/>
<path d="M357.675 336.031L352.245 324.532C353.876 322.879 354.931 320.309 354.931 317.379C354.931 316.686 354.872 315.994 354.754 315.311L364.479 311.106C365.001 313.304 365.264 315.554 365.262 317.812C365.258 325.507 362.254 332.162 357.675 336.031Z" fill="url(#paint22_linear_1457_20327)"/>
<defs>
<linearGradient id="paint0_linear_1457_20327" x1="267.136" y1="424.237" x2="299.595" y2="437.873" gradientUnits="userSpaceOnUse">
<stop stop-color="#40447E"/>
<stop offset="1" stop-color="#3C3B6B"/>
</linearGradient>
<linearGradient id="paint1_linear_1457_20327" x1="-405006" y1="459269" x2="-353502" y2="491688" gradientUnits="userSpaceOnUse">
<stop stop-color="#40447E"/>
<stop offset="1" stop-color="#3C3B6B"/>
</linearGradient>
<linearGradient id="paint2_linear_1457_20327" x1="-135273" y1="467776" x2="-713712" y2="467776" gradientUnits="userSpaceOnUse">
<stop stop-color="#40447E"/>
<stop offset="1" stop-color="#3C3B6B"/>
</linearGradient>
<linearGradient id="paint3_linear_1457_20327" x1="165.958" y1="232.272" x2="507.533" y2="286.204" gradientUnits="userSpaceOnUse">
<stop stop-color="#7C4EAB"/>
<stop offset="1" stop-color="#DD51D4"/>
</linearGradient>
<linearGradient id="paint4_linear_1457_20327" x1="-204021" y1="119007" x2="-1.51675e+06" y2="119007" gradientUnits="userSpaceOnUse">
<stop stop-color="#40447E"/>
<stop offset="1" stop-color="#3C3B6B"/>
</linearGradient>
<linearGradient id="paint5_linear_1457_20327" x1="-117304" y1="69323" x2="-822024" y2="69323" gradientUnits="userSpaceOnUse">
<stop stop-color="#40447E"/>
<stop offset="1" stop-color="#3C3B6B"/>
</linearGradient>
<linearGradient id="paint6_linear_1457_20327" x1="-371243" y1="11611.4" x2="-370593" y2="22635.3" gradientUnits="userSpaceOnUse">
<stop stop-color="#FFC444"/>
<stop offset="1" stop-color="#F36F56"/>
</linearGradient>
<linearGradient id="paint7_linear_1457_20327" x1="-203724" y1="33434.1" x2="-197431" y2="52182.4" gradientUnits="userSpaceOnUse">
<stop stop-color="#FFC444"/>
<stop offset="1" stop-color="#F36F56"/>
</linearGradient>
<linearGradient id="paint8_linear_1457_20327" x1="211.775" y1="238.742" x2="289.644" y2="366.07" gradientUnits="userSpaceOnUse">
<stop stop-color="#AA80F9"/>
<stop offset="1" stop-color="#6165D7"/>
</linearGradient>
<linearGradient id="paint9_linear_1457_20327" x1="-246141" y1="122142" x2="-248293" y2="151644" gradientUnits="userSpaceOnUse">
<stop stop-color="#AA80F9"/>
<stop offset="1" stop-color="#6165D7"/>
</linearGradient>
<linearGradient id="paint10_linear_1457_20327" x1="301.304" y1="59.8294" x2="405.965" y2="230.964" gradientUnits="userSpaceOnUse">
<stop stop-color="#FF9085"/>
<stop offset="1" stop-color="#FB6FBB"/>
</linearGradient>
<linearGradient id="paint11_linear_1457_20327" x1="-8822.39" y1="50140.6" x2="4104.54" y2="65533.8" gradientUnits="userSpaceOnUse">
<stop stop-color="#FF9085"/>
<stop offset="1" stop-color="#FB6FBB"/>
</linearGradient>
<linearGradient id="paint12_linear_1457_20327" x1="-10978.9" y1="29035.6" x2="-8389.02" y2="35135.6" gradientUnits="userSpaceOnUse">
<stop stop-color="#FF9085"/>
<stop offset="1" stop-color="#FB6FBB"/>
</linearGradient>
<linearGradient id="paint13_linear_1457_20327" x1="-13304.6" y1="16321" x2="-12804.5" y2="18529.9" gradientUnits="userSpaceOnUse">
<stop stop-color="#FF9085"/>
<stop offset="1" stop-color="#FB6FBB"/>
</linearGradient>
<linearGradient id="paint14_linear_1457_20327" x1="-17164.4" y1="64564.9" x2="13457.4" y2="86152.4" gradientUnits="userSpaceOnUse">
<stop stop-color="#FF9085"/>
<stop offset="1" stop-color="#FB6FBB"/>
</linearGradient>
<linearGradient id="paint15_linear_1457_20327" x1="-19282" y1="61121.5" x2="5384.3" y2="80585.5" gradientUnits="userSpaceOnUse">
<stop stop-color="#FF9085"/>
<stop offset="1" stop-color="#FB6FBB"/>
</linearGradient>
<linearGradient id="paint16_linear_1457_20327" x1="-21810.4" y1="65797.4" x2="11943.1" y2="87276.6" gradientUnits="userSpaceOnUse">
<stop stop-color="#FF9085"/>
<stop offset="1" stop-color="#FB6FBB"/>
</linearGradient>
<linearGradient id="paint17_linear_1457_20327" x1="-23416.8" y1="56716.1" x2="-4161.39" y2="73634" gradientUnits="userSpaceOnUse">
<stop stop-color="#FF9085"/>
<stop offset="1" stop-color="#FB6FBB"/>
</linearGradient>
<linearGradient id="paint18_linear_1457_20327" x1="-24895.6" y1="37883.7" x2="-18953.6" y2="47048.4" gradientUnits="userSpaceOnUse">
<stop stop-color="#FF9085"/>
<stop offset="1" stop-color="#FB6FBB"/>
</linearGradient>
<linearGradient id="paint19_linear_1457_20327" x1="375.155" y1="255.476" x2="436.949" y2="356.516" gradientUnits="userSpaceOnUse">
<stop stop-color="#E38DDD"/>
<stop offset="1" stop-color="#9571F6"/>
</linearGradient>
<linearGradient id="paint20_linear_1457_20327" x1="-10543.5" y1="41989.6" x2="-7435.01" y2="46278.8" gradientUnits="userSpaceOnUse">
<stop stop-color="#FF9085"/>
<stop offset="1" stop-color="#FB6FBB"/>
</linearGradient>
<linearGradient id="paint21_linear_1457_20327" x1="-15801" y1="48589.6" x2="-16598.6" y2="60397" gradientUnits="userSpaceOnUse">
<stop stop-color="#FFC444"/>
<stop offset="1" stop-color="#F36F56"/>
</linearGradient>
<linearGradient id="paint22_linear_1457_20327" x1="-13765.6" y1="57545.1" x2="-11814.2" y2="69111.3" gradientUnits="userSpaceOnUse">
<stop stop-color="#AA80F9"/>
<stop offset="1" stop-color="#6165D7"/>
</linearGradient>
</defs>
</svg>
