<svg width="412" height="402" viewBox="0 0 412 402" fill="none" xmlns="http://www.w3.org/2000/svg">
<g style="mix-blend-mode:soft-light">
<g style="mix-blend-mode:soft-light">
<path d="M106.941 253.066C98.0118 253.058 89.0924 252.47 80.2393 251.306L80.3425 250.519C137.73 258.008 174.597 239.215 178.631 237.037C158.461 205.605 172.718 159.359 172.865 158.897L173.622 159.136C173.476 159.598 159.224 205.845 179.529 236.963L179.757 237.313L179.395 237.523C179.069 237.705 151.985 253.066 106.941 253.066Z" fill="white"/>
</g>
</g>
<path d="M142.387 212.902C141.829 212.901 141.292 212.692 140.879 212.317C140.467 211.941 140.209 211.426 140.156 210.87C138.19 190.243 131.464 170.642 121.217 155.683C112.14 142.429 101.335 134.52 92.3058 134.52H92.2779C59.3921 134.584 52.5119 210.086 52.4464 210.857C52.3808 211.439 52.0908 211.972 51.6381 212.343C51.1855 212.713 50.606 212.893 50.0229 212.843C49.4399 212.793 48.8994 212.518 48.5164 212.075C48.1335 211.633 47.9384 211.058 47.9726 210.474C48.2544 207.198 55.2951 130.11 92.2681 130.041H92.3074C102.977 130.041 114.861 138.463 124.925 153.157C135.592 168.734 142.59 189.083 144.627 210.454C144.656 210.748 144.627 211.046 144.541 211.328C144.455 211.611 144.314 211.874 144.126 212.103C143.938 212.331 143.707 212.52 143.446 212.659C143.185 212.797 142.899 212.883 142.605 212.912C142.532 212.905 142.459 212.902 142.387 212.902Z" fill="url(#paint0_linear_1457_20395)"/>
<path d="M5.38384 368.293L48.6752 390.21L74.9134 309.72L31.6859 201.805L19.431 204.809L0.834711 359.778C0.626579 361.493 0.951574 363.23 1.7655 364.753C2.57943 366.277 3.8428 367.513 5.38384 368.293Z" fill="url(#paint1_linear_1457_20395)"/>
<path style="mix-blend-mode:multiply" opacity="0.52" d="M74.914 309.72L31.6865 201.805L24.459 203.584C23.634 215.202 23.674 226.865 24.5786 238.477C27.4748 275.215 37.0973 285.439 32.4417 311.069C28.5658 332.38 20.1015 335.273 20.8403 349.612C21.6463 365.227 32.5384 378.304 45.4879 388.586L48.6823 390.203L74.914 309.72Z" fill="url(#paint2_linear_1457_20395)"/>
<path d="M31.6865 201.811H193.1L246.52 374.269L48.6758 390.21L31.6865 201.811Z" fill="url(#paint3_linear_1457_20395)"/>
<path d="M81.6893 216.592C81.1824 216.593 80.6902 216.422 80.2928 216.108C79.8954 215.793 79.6162 215.353 79.5008 214.859C79.0421 212.903 68.4367 166.698 83.3897 144.014C87.6751 137.516 93.6642 133.547 101.187 132.22C139.847 125.408 163.641 208.431 164.635 211.97C164.724 212.256 164.754 212.557 164.724 212.856C164.695 213.154 164.606 213.444 164.462 213.707C164.319 213.97 164.124 214.202 163.89 214.389C163.655 214.576 163.386 214.714 163.097 214.795C162.808 214.877 162.506 214.899 162.209 214.861C161.911 214.824 161.624 214.727 161.364 214.577C161.105 214.427 160.878 214.226 160.697 213.987C160.517 213.747 160.386 213.474 160.312 213.183C160.08 212.364 136.652 130.518 101.966 136.641C95.6185 137.762 90.7679 140.982 87.1394 146.486C73.2381 167.568 83.7649 213.374 83.873 213.834C84.0086 214.414 83.9085 215.024 83.5945 215.53C83.2806 216.036 82.7786 216.397 82.1988 216.533C82.0317 216.572 81.8608 216.592 81.6893 216.592Z" fill="url(#paint4_linear_1457_20395)"/>
<g style="mix-blend-mode:multiply" opacity="0.3">
<path style="mix-blend-mode:multiply" opacity="0.3" d="M193.1 201.805H113.024C109.074 205.822 106.271 210.451 106.003 215.646C104.745 240.054 160.838 248.061 166.249 281.499C170.151 305.624 146.139 333.46 124.714 345.86C102.14 358.926 86.8445 352.31 71.577 366.816C64.8704 373.19 60.7848 381.159 58.3555 389.422L246.52 374.261L193.1 201.805Z" fill="url(#paint5_linear_1457_20395)"/>
</g>
<path d="M87.9031 217.952C88.4583 214.531 86.1356 211.308 82.7153 210.753C79.295 210.198 76.0722 212.521 75.517 215.941C74.9618 219.361 77.2844 222.584 80.7048 223.139C84.1251 223.695 87.3479 221.372 87.9031 217.952Z" fill="url(#paint6_linear_1457_20395)"/>
<path d="M170.649 216.578C171.204 213.148 168.872 209.918 165.442 209.363C162.011 208.809 158.781 211.14 158.227 214.571C157.672 218.001 160.004 221.231 163.434 221.786C166.864 222.34 170.095 220.009 170.649 216.578Z" fill="url(#paint7_linear_1457_20395)"/>
<path d="M311.61 22.9192C325.631 141.412 339.651 258.674 353.671 374.705C354.301 379.908 350.707 384.507 345.678 384.937C289.326 390.283 232.977 395.743 176.631 401.318C166.579 401.81 161.059 396.189 160.413 390.567C145.982 265.314 131.551 138.751 117.119 10.8772C116.464 5.13384 121.337 0.198105 131.389 0.689549C188.016 4.73031 244.642 8.71647 301.265 12.648C306.33 12.9822 310.98 17.6001 311.61 22.9192Z" fill="#26264F"/>
<path d="M319.435 22.6735C333.545 141.69 347.654 259.455 361.762 375.966C362.396 381.185 358.781 385.813 353.719 386.244C295.207 391.2 236.696 396.254 178.185 401.405C172.846 401.88 167.938 397.65 167.288 392C152.763 266.174 138.238 139.022 123.713 10.543C123.058 4.7751 126.932 0.348831 132.308 0.714137C191.213 4.64569 250.117 8.5281 309.022 12.3614C314.123 12.6988 318.803 17.3331 319.435 22.6735Z" fill="url(#paint8_linear_1457_20395)"/>
<path d="M316.037 42.1429C329.104 152.412 342.172 261.605 355.241 369.723C355.832 374.61 352.456 378.925 347.725 379.31C292.698 383.809 237.671 388.396 182.644 393.07C177.672 393.496 173.102 389.537 172.488 384.288C159.055 268.069 145.627 150.717 132.206 32.2304C131.598 26.8688 135.2 22.721 140.203 23.0175C195.572 26.2414 250.942 29.4314 306.311 32.5876C311.075 32.8562 315.447 37.1711 316.037 42.1429Z" fill="url(#paint9_linear_1457_20395)"/>
<path d="M316.037 42.1429C329.104 152.412 342.172 261.605 355.241 369.723C355.832 374.61 352.456 378.925 347.725 379.31C292.698 383.809 237.671 388.396 182.644 393.07C177.672 393.496 173.102 389.537 172.488 384.288C159.055 268.069 145.627 150.717 132.206 32.2304C131.598 26.8688 135.2 22.721 140.203 23.0175C195.572 26.2414 250.942 29.4314 306.311 32.5876C311.075 32.8562 315.447 37.1711 316.037 42.1429Z" fill="url(#paint10_linear_1457_20395)"/>
<g style="mix-blend-mode:multiply" opacity="0.35">
<path d="M306.317 32.5843C251.603 29.4652 196.889 26.3129 142.175 23.1273C144.016 33.8662 147.247 44.3197 151.787 54.2242C169.937 93.5987 196.599 95.766 207.029 130.07C217.775 165.42 193.541 176.482 205.379 208.398C218.227 243.031 249.739 238.018 266.392 276.006C280.747 308.75 262.267 323.717 277.111 343.616C293.381 365.425 323.478 358.032 354.72 365.418C341.826 258.707 328.932 150.949 316.036 42.1445C315.447 37.1711 311.074 32.8562 306.317 32.5843Z" fill="url(#paint11_linear_1457_20395)"/>
</g>
<path d="M226.402 18.049C226.625 19.9673 225.335 21.435 223.524 21.3253C221.712 21.2155 220.057 19.5676 219.835 17.6411C219.612 15.7146 220.903 14.2436 222.716 14.3648C224.529 14.486 226.179 16.1291 226.402 18.049Z" fill="#DE8BDF"/>
<path d="M246.167 124.609C253.162 124.609 258.832 117.92 258.832 109.669C258.832 101.418 253.162 94.729 246.167 94.729C239.173 94.729 233.503 101.418 233.503 109.669C233.503 117.92 239.173 124.609 246.167 124.609Z" fill="#DD51D4"/>
<path d="M246.167 124.609C253.162 124.609 258.832 117.92 258.832 109.669C258.832 101.418 253.162 94.729 246.167 94.729C239.173 94.729 233.503 101.418 233.503 109.669C233.503 117.92 239.173 124.609 246.167 124.609Z" fill="black" fill-opacity="0.2"/>
<path d="M296.578 124.609C303.571 124.609 309.241 117.92 309.241 109.669C309.241 101.418 303.571 94.729 296.578 94.729C289.584 94.729 283.915 101.418 283.915 109.669C283.915 117.92 289.584 124.609 296.578 124.609Z" fill="#DD51D4"/>
<path d="M296.578 124.609C303.571 124.609 309.241 117.92 309.241 109.669C309.241 101.418 303.571 94.729 296.578 94.729C289.584 94.729 283.915 101.418 283.915 109.669C283.915 117.92 289.584 124.609 296.578 124.609Z" fill="black" fill-opacity="0.2"/>
<path d="M271.232 124.609C278.326 124.609 284.077 117.92 284.077 109.669C284.077 101.418 278.326 94.729 271.232 94.729C264.138 94.729 258.388 101.418 258.388 109.669C258.388 117.92 264.138 124.609 271.232 124.609Z" fill="#D8DEE8"/>
<path d="M346.988 124.609C353.982 124.609 359.652 117.92 359.652 109.669C359.652 101.418 353.982 94.729 346.988 94.729C339.993 94.729 334.323 101.418 334.323 109.669C334.323 117.92 339.993 124.609 346.988 124.609Z" fill="#DD51D4"/>
<path d="M346.988 124.609C353.982 124.609 359.652 117.92 359.652 109.669C359.652 101.418 353.982 94.729 346.988 94.729C339.993 94.729 334.323 101.418 334.323 109.669C334.323 117.92 339.993 124.609 346.988 124.609Z" fill="black" fill-opacity="0.2"/>
<path d="M321.644 124.609C328.737 124.609 334.488 117.92 334.488 109.669C334.488 101.418 328.737 94.729 321.644 94.729C314.55 94.729 308.799 101.418 308.799 109.669C308.799 117.92 314.55 124.609 321.644 124.609Z" fill="#D8DEE8"/>
<path d="M372.053 124.609C379.147 124.609 384.897 117.92 384.897 109.669C384.897 101.418 379.147 94.729 372.053 94.729C364.959 94.729 359.208 101.418 359.208 109.669C359.208 117.92 364.959 124.609 372.053 124.609Z" fill="#D8DEE8"/>
<path d="M220.823 124.609C227.917 124.609 233.668 117.92 233.668 109.669C233.668 101.418 227.917 94.729 220.823 94.729C213.729 94.729 207.979 101.418 207.979 109.669C207.979 117.92 213.729 124.609 220.823 124.609Z" fill="#D8DEE8"/>
<path d="M129.67 21.535L208.253 111.692H411.079L312.797 32.9529L129.67 21.535Z" fill="url(#paint12_linear_1457_20395)"/>
<path d="M129.67 21.535L208.253 111.692H411.079L312.797 32.9529L129.67 21.535Z" fill="#DD51D4"/>
<path d="M129.67 21.535L208.253 111.692H233.668L150.809 22.852L129.67 21.535Z" fill="#F4F7FA"/>
<path d="M173.506 24.2674L258.712 111.692H283.815L196.371 25.6942L173.506 24.2674Z" fill="#F4F7FA"/>
<path d="M219.407 27.1292L308.979 111.692H334.205L242.615 28.5774L219.407 27.1292Z" fill="#F4F7FA"/>
<path d="M289.567 31.5048L266.001 30.0353L359.49 111.692H384.839L289.567 31.5048Z" fill="#F4F7FA"/>
<path d="M384.863 111.692C385.702 118.985 390.987 124.611 397.397 124.611C403.807 124.611 409.093 118.985 409.932 111.692H384.863Z" fill="#DD51D4"/>
<path d="M384.863 111.692C385.702 118.985 390.987 124.611 397.397 124.611C403.807 124.611 409.093 118.985 409.932 111.692H384.863Z" fill="black" fill-opacity="0.2"/>
<path opacity="0.63" d="M288.463 168.013C277.487 142.733 249.665 130.455 226.307 140.591C202.948 150.726 192.905 179.436 203.874 204.718C214.843 229.999 242.672 242.274 266.03 232.138C289.389 222.003 299.432 193.287 288.463 168.013ZM254.019 204.039L254.955 211.159L248.112 212.058L247.247 205.425C242.542 205.831 237.839 205.171 234.984 203.984L236.005 195.541C239.148 196.759 243.46 197.687 247.999 197.089C251.978 196.566 254.499 194.672 254.131 191.879C253.783 189.226 251.328 187.845 245.94 186.778C238.139 185.247 232.584 182.426 231.688 175.654C230.882 169.51 234.578 164.124 241.854 161.677L240.983 155.044L247.825 154.146L248.631 160.289C253.338 159.883 256.608 160.453 259.058 161.262L258.075 169.417C256.159 168.888 252.737 167.704 247.709 168.365C243.171 168.96 241.963 171.109 242.22 173.064C242.523 175.367 245.159 176.504 251.393 177.967C260.087 179.808 263.942 183.209 264.767 189.488C265.565 195.703 261.864 201.585 254.019 204.039Z" fill="#F4F7FA"/>
<g opacity="0.63">
<path opacity="0.63" d="M313.525 305.282L206.608 308.52C204.751 308.577 202.937 307.951 201.509 306.762C200.082 305.572 199.14 303.9 198.861 302.063L194.527 273.559C194.364 272.491 194.432 271.401 194.724 270.361C195.016 269.32 195.526 268.355 196.221 267.527C196.916 266.7 197.779 266.03 198.753 265.562C199.726 265.094 200.789 264.84 201.869 264.815L308.901 262.336C310.75 262.292 312.552 262.923 313.97 264.112C315.387 265.301 316.322 266.966 316.6 268.795L320.818 296.539C320.98 297.603 320.914 298.689 320.624 299.726C320.335 300.762 319.829 301.726 319.139 302.552C318.45 303.378 317.593 304.049 316.625 304.52C315.657 304.99 314.601 305.25 313.525 305.282Z" fill="#F4F7FA"/>
<path opacity="0.63" d="M317.117 328.714L210.262 332.365C208.4 332.429 206.579 331.806 205.146 330.616C203.713 329.426 202.766 327.751 202.486 325.91L202.445 325.641C202.283 324.578 202.349 323.493 202.637 322.458C202.926 321.423 203.43 320.46 204.118 319.634C204.806 318.808 205.66 318.137 206.626 317.665C207.592 317.194 208.647 316.932 209.721 316.898L316.615 313.512C318.474 313.453 320.291 314.077 321.72 315.267C323.15 316.457 324.094 318.129 324.374 319.968C324.535 321.029 324.471 322.113 324.184 323.147C323.897 324.182 323.394 325.144 322.708 325.97C322.023 326.796 321.17 327.468 320.206 327.941C319.243 328.414 318.19 328.677 317.117 328.714Z" fill="#F4F7FA"/>
</g>
<defs>
<linearGradient id="paint0_linear_1457_20395" x1="102968" y1="135348" x2="105426" y2="172610" gradientUnits="userSpaceOnUse">
<stop stop-color="#E38DDD"/>
<stop offset="1" stop-color="#9571F6"/>
</linearGradient>
<linearGradient id="paint1_linear_1457_20395" x1="-17.5879" y1="225.748" x2="37.1344" y2="317.515" gradientUnits="userSpaceOnUse">
<stop stop-color="#FF9085"/>
<stop offset="1" stop-color="#FB6FBB"/>
</linearGradient>
<linearGradient id="paint2_linear_1457_20395" x1="24156.8" y1="380081" x2="80094.9" y2="407027" gradientUnits="userSpaceOnUse">
<stop stop-color="#FF9085"/>
<stop offset="1" stop-color="#FB6FBB"/>
</linearGradient>
<linearGradient id="paint3_linear_1457_20395" x1="120259" y1="354097" x2="301978" y2="513756" gradientUnits="userSpaceOnUse">
<stop stop-color="#FF9085"/>
<stop offset="1" stop-color="#FB6FBB"/>
</linearGradient>
<linearGradient id="paint4_linear_1457_20395" x1="103734" y1="121212" x2="111472" y2="173182" gradientUnits="userSpaceOnUse">
<stop stop-color="#E38DDD"/>
<stop offset="1" stop-color="#9571F6"/>
</linearGradient>
<linearGradient id="paint5_linear_1457_20395" x1="185966" y1="423663" x2="362549" y2="560115" gradientUnits="userSpaceOnUse">
<stop stop-color="#FF9085"/>
<stop offset="1" stop-color="#FB6FBB"/>
</linearGradient>
<linearGradient id="paint6_linear_1457_20395" x1="11980.9" y1="24982.6" x2="12174.7" y2="25054.6" gradientUnits="userSpaceOnUse">
<stop stop-color="#E38DDD"/>
<stop offset="1" stop-color="#9571F6"/>
</linearGradient>
<linearGradient id="paint7_linear_1457_20395" x1="18400.5" y1="24994.5" x2="18594.9" y2="25066.6" gradientUnits="userSpaceOnUse">
<stop stop-color="#E38DDD"/>
<stop offset="1" stop-color="#9571F6"/>
</linearGradient>
<linearGradient id="paint8_linear_1457_20395" x1="152.345" y1="200.316" x2="501.686" y2="145.039" gradientUnits="userSpaceOnUse">
<stop stop-color="#444B8C"/>
<stop offset="1" stop-color="#26264F"/>
</linearGradient>
<linearGradient id="paint9_linear_1457_20395" x1="309.394" y1="64.7018" x2="-34.638" y2="778.289" gradientUnits="userSpaceOnUse">
<stop stop-color="#FFC444"/>
<stop offset="1" stop-color="#F36F56"/>
</linearGradient>
<linearGradient id="paint10_linear_1457_20395" x1="355.308" y1="58.3165" x2="81.3531" y2="74.7972" gradientUnits="userSpaceOnUse">
<stop stop-color="#7C4EAB"/>
<stop offset="1" stop-color="#DD51D4"/>
</linearGradient>
<linearGradient id="paint11_linear_1457_20395" x1="354.719" y1="55.7879" x2="93.8639" y2="71.9476" gradientUnits="userSpaceOnUse">
<stop stop-color="#7C4EAB"/>
<stop offset="1" stop-color="#DD51D4"/>
</linearGradient>
<linearGradient id="paint12_linear_1457_20395" x1="246934" y1="61449.2" x2="730353" y2="61449.2" gradientUnits="userSpaceOnUse">
<stop stop-color="#FF9085"/>
<stop offset="1" stop-color="#FB6FBB"/>
</linearGradient>
</defs>
</svg>
